<svg id="visual" viewBox="0 0 900 600" width="900" height="600" xmlns="http://www.w3.org/2000/svg" xmlns:xlink="http://www.w3.org/1999/xlink" version="1.1"><rect x="0" y="0" width="900" height="600" fill="#001220"></rect><path d="M0 376L21.5 385.2C43 394.3 86 412.7 128.8 409.8C171.7 407 214.3 383 257.2 369.8C300 356.7 343 354.3 385.8 355.2C428.7 356 471.3 360 514.2 366.3C557 372.7 600 381.3 642.8 389.7C685.7 398 728.3 406 771.2 410.3C814 414.7 857 415.3 878.5 415.7L900 416L900 601L878.5 601C857 601 814 601 771.2 601C728.3 601 685.7 601 642.8 601C600 601 557 601 514.2 601C471.3 601 428.7 601 385.8 601C343 601 300 601 257.2 601C214.3 601 171.7 601 128.8 601C86 601 43 601 21.5 601L0 601Z" fill="#c62368"></path><path d="M0 434L21.5 432.2C43 430.3 86 426.7 128.8 420.5C171.7 414.3 214.3 405.7 257.2 414.5C300 423.3 343 449.7 385.8 455.2C428.7 460.7 471.3 445.3 514.2 444.3C557 443.3 600 456.7 642.8 454.7C685.7 452.7 728.3 435.3 771.2 426.2C814 417 857 416 878.5 415.5L900 415L900 601L878.5 601C857 601 814 601 771.2 601C728.3 601 685.7 601 642.8 601C600 601 557 601 514.2 601C471.3 601 428.7 601 385.8 601C343 601 300 601 257.2 601C214.3 601 171.7 601 128.8 601C86 601 43 601 21.5 601L0 601Z" fill="#d53867"></path><path d="M0 438L21.5 440.3C43 442.7 86 447.3 128.8 455.7C171.7 464 214.3 476 257.2 483.8C300 491.7 343 495.3 385.8 492.7C428.7 490 471.3 481 514.2 479.5C557 478 600 484 642.8 489.7C685.7 495.3 728.3 500.7 771.2 501.3C814 502 857 498 878.5 496L900 494L900 601L878.5 601C857 601 814 601 771.2 601C728.3 601 685.7 601 642.8 601C600 601 557 601 514.2 601C471.3 601 428.7 601 385.8 601C343 601 300 601 257.2 601C214.3 601 171.7 601 128.8 601C86 601 43 601 21.5 601L0 601Z" fill="#e34c67"></path><path d="M0 533L21.5 525.8C43 518.7 86 504.3 128.8 504.8C171.7 505.3 214.3 520.7 257.2 525.2C300 529.7 343 523.3 385.8 515C428.7 506.7 471.3 496.3 514.2 496.8C557 497.3 600 508.7 642.8 518C685.7 527.3 728.3 534.7 771.2 529.3C814 524 857 506 878.5 497L900 488L900 601L878.5 601C857 601 814 601 771.2 601C728.3 601 685.7 601 642.8 601C600 601 557 601 514.2 601C471.3 601 428.7 601 385.8 601C343 601 300 601 257.2 601C214.3 601 171.7 601 128.8 601C86 601 43 601 21.5 601L0 601Z" fill="#ef5f67"></path><path d="M0 550L21.5 550.7C43 551.3 86 552.7 128.8 549.3C171.7 546 214.3 538 257.2 539.2C300 540.3 343 550.7 385.8 551.5C428.7 552.3 471.3 543.7 514.2 538C557 532.3 600 529.7 642.8 527.8C685.7 526 728.3 525 771.2 531.8C814 538.7 857 553.3 878.5 560.7L900 568L900 601L878.5 601C857 601 814 601 771.2 601C728.3 601 685.7 601 642.8 601C600 601 557 601 514.2 601C471.3 601 428.7 601 385.8 601C343 601 300 601 257.2 601C214.3 601 171.7 601 128.8 601C86 601 43 601 21.5 601L0 601Z" fill="#fa7268"></path></svg>